<?xml version="1.0" encoding="UTF-8"?><svg id="a" xmlns="http://www.w3.org/2000/svg" xmlns:xlink="http://www.w3.org/1999/xlink" viewBox="0 0 271.45 263.85"><defs><style>.c{fill:url(#b);}.d{fill:#f1f2f2;}.e{fill:#d1d3d4;}</style><linearGradient id="b" x1="38.25" y1="233.2" x2="265.15" y2="6.3" gradientTransform="matrix(1, 0, 0, 1, 0, 0)" gradientUnits="userSpaceOnUse"><stop offset="0" stop-color="#ee236b"/><stop offset="0" stop-color="#ec2269"/><stop offset=".04" stop-color="#d8204f"/><stop offset=".08" stop-color="#c91f3c"/><stop offset=".11" stop-color="#c01e30"/><stop offset=".16" stop-color="#be1e2d"/><stop offset=".57" stop-color="#ef4136"/><stop offset=".96" stop-color="#af57a2"/></linearGradient></defs><rect class="e" y="24.34" width="239.51" height="239.51" rx="21.52" ry="21.52"/><rect class="c" x="31.94" width="239.51" height="239.51" rx="21.52" ry="21.52"/><g><path class="d" d="M130.08,216.22v-80.3h25.85c5.72,0,10.67,.99,14.85,2.97,4.18,1.98,7.43,4.8,9.74,8.47,2.31,3.67,3.46,7.99,3.46,12.98s-1.26,9.86-3.79,13.97c-2.53,4.11-5.96,7.08-10.29,8.91l15.18,33h-17.93l-12.98-30.36h-7.7v30.36h-16.39Zm16.39-44.66h9.46c3.67,0,6.51-.92,8.53-2.75,2.02-1.83,3.03-4.4,3.03-7.7s-1.01-6.12-3.03-8.03c-2.02-1.91-4.86-2.86-8.53-2.86h-9.46v21.34Z"/><path class="d" d="M196.19,216.22v-80.3h16.5v30.8h18.48v-30.8h16.5v80.3h-16.5v-34.65h-18.48v34.65h-16.5Z"/></g></svg>