<?xml version="1.0" encoding="utf-8"?>
<!-- Generator: Adobe Illustrator 26.2.1, SVG Export Plug-In . SVG Version: 6.00 Build 0)  -->
<svg version="1.1" id="Layer_1" xmlns="http://www.w3.org/2000/svg" xmlns:xlink="http://www.w3.org/1999/xlink" x="0px" y="0px"
	 viewBox="0 0 16 16" style="enable-background:new 0 0 16 16;" xml:space="preserve">
<style type="text/css">
	.st0{fill:#59A869;}
	.st1{fill:#CFD6D3;}
	.st2{fill:#818991;}
</style>
<line class="st0" x1="30.7" y1="3.1" x2="32" y2="4.5"/>
<path class="st0" d="M23.2,6.8"/>
<path class="st0" d="M21.8,8.1"/>
<g>
	<path class="st1" d="M10.8,13.9H2.9c-0.7,0-1.3-0.5-1.3-1.3V4.8c0-0.7,0.5-1.3,1.3-1.3h7.8C11.4,3.5,12,4,12,4.8v7.8
		C12,13.4,11.4,13.9,10.8,13.9z"/>
	<path class="st2" d="M12.2,12.7H4.4c-0.7,0-1.3-0.5-1.3-1.3V3.6c0-0.7,0.5-1.4,1.3-1.4h7.8c0.7,0,1.3,0.5,1.3,1.3v7.8
		C13.6,12,12.9,12.7,12.2,12.7z"/>
	<polygon class="st0" points="15.3,10.2 6.7,14.7 6.7,5.6 	"/>
</g>
</svg>
