<?xml version="1.0" encoding="utf-8"?>
<!-- Generator: Adobe Illustrator 26.2.1, SVG Export Plug-In . SVG Version: 6.00 Build 0)  -->
<svg version="1.1" id="Layer_1" xmlns="http://www.w3.org/2000/svg" xmlns:xlink="http://www.w3.org/1999/xlink" x="0px" y="0px"
	 viewBox="0 0 16 16" style="enable-background:new 0 0 16 16;" xml:space="preserve">
<style type="text/css">
	.st0{fill:#CFD6D3;}
	.st1{fill:#818991;}
	.st2{fill:#59A869;}
</style>
<g>
	<path class="st0" d="M9.9,13.7H2c-0.7,0-1.3-0.5-1.3-1.3V4.6c0-0.7,0.5-1.3,1.3-1.3h7.8c0.7,0,1.3,0.5,1.3,1.3v7.8
		C11.1,13.2,10.5,13.7,9.9,13.7z"/>
	<path class="st1" d="M11.3,12.5H3.5c-0.7,0-1.3-0.5-1.3-1.3V3.4C2.2,2.7,2.7,2,3.5,2h7.8c0.7,0,1.3,0.5,1.3,1.3v7.8
		C12.7,11.8,12,12.5,11.3,12.5z"/>
	<polygon class="st2" points="14.3,6 15.6,7.4 8.6,14.3 5.4,11 6.8,9.7 8.8,11.7 	"/>
</g>
</svg>
